Coordinates
version=1
nRows=41
nColumns=24
inDegrees=yes

Units are S.I. units (second, meters, Newtons, ...)
If the header above contains a line with 'inDegrees', this indicates whether rotational values are in degrees (yes) or radians (no).

endheader
time	pelvis_tilt	pelvis_list	pelvis_rotation	pelvis_tx	pelvis_ty	pelvis_tz	hip_flexion_r	hip_adduction_r	hip_rotation_r	knee_angle_r	ankle_angle_r	subtalar_angle_r	mtp_angle_r	hip_flexion_l	hip_adduction_l	hip_rotation_l	knee_angle_l	ankle_angle_l	subtalar_angle_l	mtp_angle_l	lumbar_extension	lumbar_bending	lumbar_rotation
6.350000	8.118562	1.978208	-179.438273	0.311182	0.469041	-1.223775	82.625744	-29.226079	-4.572818	-120.835955	43.332653	8.782525	0.000000	87.450417	-33.189621	5.502479	-118.738442	42.191490	19.590890	0.000000	-13.141011	1.784227	4.222949
6.355000	8.134199	1.964021	-179.390842	0.311358	0.468291	-1.223857	82.757273	-29.252683	-4.510886	-120.960984	43.354251	8.749656	0.000000	87.585535	-33.122250	5.574482	-118.830216	42.218426	19.613776	0.000000	-13.162795	1.774757	4.169932
6.360000	8.113386	1.935344	-179.371398	0.311508	0.467501	-1.223923	82.868502	-29.256614	-4.406945	-121.088751	43.366862	8.760345	0.000000	87.696428	-33.078510	5.680348	-118.963358	42.195936	19.690605	0.000000	-13.234878	1.703153	4.249757
6.365000	8.118988	1.943384	-179.370559	0.311633	0.466746	-1.223960	82.987053	-29.240617	-4.359667	-121.211276	43.383325	8.726019	0.000000	87.829879	-33.055243	5.774744	-119.076174	42.244582	19.702950	0.000000	-13.268011	1.714912	4.266652
6.370000	8.122334	1.963226	-179.370146	0.311766	0.466037	-1.224065	83.098353	-29.210889	-4.338109	-121.340276	43.395869	8.625068	0.000000	87.959205	-33.046182	5.851007	-119.173751	42.266338	19.621704	0.000000	-13.303169	1.727017	4.283499
6.375000	8.163765	1.990667	-179.397280	0.311832	0.465357	-1.224074	83.238111	-29.167550	-4.309861	-121.452880	43.398062	8.567262	0.000000	88.151545	-33.043372	6.007629	-119.322777	42.247802	19.661136	0.000000	-13.290167	1.743025	4.371637
6.380000	8.131597	1.998172	-179.375561	0.312010	0.464710	-1.224168	83.308878	-29.161331	-4.266318	-121.575977	43.410279	8.515876	0.000000	88.237590	-33.009164	6.078680	-119.401409	42.280369	19.625873	0.000000	-13.368773	1.761085	4.328335
6.385000	8.135788	1.896289	-179.327422	0.312166	0.464066	-1.224057	83.484538	-29.228224	-4.068471	-121.685635	43.401672	8.552396	0.000000	88.428903	-32.827380	6.570221	-119.265261	41.886305	20.490604	0.000000	-13.407403	1.675815	4.279244
6.390000	8.168695	1.999094	-179.321704	0.312307	0.463498	-1.224374	83.512334	-29.155833	-4.169704	-121.761001	43.417439	8.539507	0.000000	88.489110	-32.907732	6.252866	-119.538719	42.316078	19.697181	0.000000	-13.406154	1.738248	4.353766
6.395000	8.133212	1.898041	-179.292319	0.312418	0.462856	-1.224259	83.666676	-29.215267	-3.971316	-121.893106	43.423454	8.553623	0.000000	88.638213	-32.754461	6.730317	-119.420302	41.879289	20.448915	0.000000	-13.482241	1.650981	4.297026
6.400000	8.125607	1.919025	-179.311939	0.312513	0.462281	-1.224331	83.745494	-29.174380	-3.934584	-121.988352	43.451407	8.542359	0.000000	88.745624	-32.754165	6.844976	-119.516860	41.876218	20.447709	0.000000	-13.525003	1.665305	4.342475
6.405000	8.136601	1.938387	-179.327439	0.312598	0.461687	-1.224346	83.842290	-29.149543	-3.903069	-122.082280	43.477282	8.512520	0.000000	88.871286	-32.749293	6.952187	-119.626308	41.861765	20.434506	0.000000	-13.533009	1.695023	4.367670
6.410000	8.149948	1.943236	-179.333089	0.312697	0.461199	-1.224447	83.924972	-29.119607	-3.821495	-122.176272	43.439117	8.652941	0.000000	88.971857	-32.738704	7.031463	-119.694980	41.864119	20.442921	0.000000	-13.542523	1.687623	4.408663
6.415000	8.146162	1.923028	-179.303698	0.312813	0.460668	-1.224539	84.011234	-29.152086	-3.819427	-122.255475	43.506821	8.515952	0.000000	89.045601	-32.687580	7.085165	-119.753299	41.898332	20.491150	0.000000	-13.575387	1.668778	4.362795
6.420000	8.119951	1.916840	-179.281595	0.312994	0.460145	-1.224644	84.082802	-29.154974	-3.777419	-122.349591	43.448971	8.457172	0.000000	89.112630	-32.647336	7.147685	-119.812745	41.901998	20.492922	0.000000	-13.643972	1.655487	4.357642
6.425000	8.092345	1.913663	-179.278391	0.313088	0.459689	-1.224686	84.136965	-29.148735	-3.719883	-122.431353	43.462339	8.453297	0.000000	89.166601	-32.617927	7.216007	-119.879403	41.916537	20.491789	0.000000	-13.703222	1.649570	4.374978
6.430000	8.136196	1.943057	-179.282384	0.313131	0.459241	-1.224764	84.230942	-29.134221	-3.738549	-122.502310	43.487129	8.447828	0.000000	89.299473	-32.588972	7.337271	-119.932979	41.925180	20.473402	0.000000	-13.666124	1.667818	4.423013
6.435000	8.145078	2.076382	-179.295938	0.313269	0.458756	-1.225072	84.221409	-29.053538	-3.890460	-122.573141	43.502284	8.378358	0.000000	89.352150	-32.675442	7.025059	-120.219931	42.312327	19.512700	0.000000	-13.692825	1.776046	4.453223
6.440000	8.115476	2.065835	-179.298095	0.313426	0.458253	-1.225154	84.278026	-29.045534	-3.844241	-122.652525	43.503449	8.379002	0.000000	89.401767	-32.643230	7.085005	-120.302759	42.315659	19.510865	0.000000	-13.759108	1.766792	4.453442
6.445000	8.117182	1.951715	-179.269416	0.313529	0.457815	-1.225017	84.415260	-29.105269	-3.573305	-122.726229	43.556088	8.724585	0.000000	89.532198	-32.469760	7.529697	-120.150558	41.900486	20.355775	0.000000	-13.777198	1.677694	4.378186
6.450000	8.114537	2.079583	-179.282627	0.313618	0.457460	-1.225292	84.377989	-29.049380	-3.811782	-122.764255	43.525263	8.422967	0.000000	89.542403	-32.564987	7.230481	-120.391145	42.323478	19.497157	0.000000	-13.805821	1.780960	4.446475
6.455000	8.120571	2.082962	-179.279988	0.313741	0.457050	-1.225327	84.461058	-29.043158	-3.781743	-122.838721	43.530492	8.391050	0.000000	89.629375	-32.517796	7.306376	-120.464171	42.295718	19.454535	0.000000	-13.827835	1.788475	4.417938
6.460000	8.089150	2.076106	-179.285530	0.313890	0.456658	-1.225384	84.517449	-29.042131	-3.750295	-122.916772	43.537198	8.381347	0.000000	89.667754	-32.483370	7.368621	-120.531231	42.300438	19.444197	0.000000	-13.893037	1.777088	4.423784
6.465000	8.107332	2.084579	-179.279723	0.314042	0.456304	-1.225430	84.586127	-29.039021	-3.744091	-122.964373	43.512689	8.363755	0.000000	89.753489	-32.429197	7.436432	-120.574642	42.302814	19.382960	0.000000	-13.899160	1.786733	4.424141
6.470000	8.089449	1.973380	-179.274293	0.314056	0.456005	-1.225278	84.687018	-29.092321	-3.556511	-123.012519	43.546533	8.453049	0.000000	89.836614	-32.287471	7.876559	-120.399985	41.884629	20.207696	0.000000	-13.926186	1.681138	4.417914
6.475000	8.058924	1.970841	-179.281540	0.314200	0.455628	-1.225370	84.723067	-29.080174	-3.528194	-123.071330	43.552324	8.453377	0.000000	89.868564	-32.267066	7.926747	-120.441933	41.892915	20.202663	0.000000	-13.982172	1.674537	4.414131
6.480000	8.062687	1.991866	-179.295081	0.314262	0.455399	-1.225426	84.761111	-29.065597	-3.541977	-123.110942	43.543465	8.456789	0.000000	89.926147	-32.250881	7.996330	-120.498315	41.894374	20.149146	0.000000	-13.993339	1.691370	4.445692
6.485000	8.036752	2.112877	-179.329365	0.314430	0.455079	-1.225701	84.727394	-28.983413	-3.692011	-123.174585	43.551458	8.347606	0.000000	89.915224	-32.353584	7.697380	-120.764302	42.293742	19.270879	0.000000	-14.050263	1.791010	4.515982
6.490000	8.015840	2.108213	-179.334078	0.314508	0.454841	-1.225737	84.765484	-28.984216	-3.660149	-123.229652	43.553354	8.348218	0.000000	89.940771	-32.328716	7.742564	-120.813819	42.295721	19.262663	0.000000	-14.084354	1.787599	4.537107
6.495000	8.064744	2.112286	-179.353378	0.314587	0.454577	-1.225815	84.857500	-28.969149	-3.658701	-123.259875	43.522901	8.367896	0.000000	90.023522	-32.306539	7.793797	-120.825780	42.314468	19.223077	0.000000	-14.034530	1.781040	4.597689
6.500000	8.048293	1.998824	-179.343365	0.314675	0.454336	-1.225672	84.961199	-29.025191	-3.477131	-123.295852	43.522706	8.467205	0.000000	90.105706	-32.155756	8.226328	-120.639233	41.880970	20.045373	0.000000	-14.067515	1.683041	4.572587
6.505000	8.028722	1.999083	-179.347018	0.314768	0.454093	-1.225749	84.985712	-29.024297	-3.471076	-123.338597	43.521821	8.465952	0.000000	90.126558	-32.141843	8.254071	-120.678916	41.888992	20.037006	0.000000	-14.104106	1.675120	4.581409
6.510000	8.026847	2.132082	-179.378871	0.314872	0.453866	-1.226023	84.934838	-28.945464	-3.660339	-123.371757	43.532858	8.357917	0.000000	90.120688	-32.246912	7.952337	-120.914879	42.307276	19.140019	0.000000	-14.119895	1.785578	4.656059
6.515000	7.999131	2.124930	-179.392954	0.314966	0.453577	-1.226042	84.974146	-28.943747	-3.636216	-123.427144	43.532751	8.357950	0.000000	90.144535	-32.236755	7.988771	-120.979858	42.299017	19.121599	0.000000	-14.159494	1.783986	4.655002
6.520000	7.990056	2.032077	-179.392084	0.315028	0.453410	-1.225885	85.068615	-29.000213	-3.495841	-123.451969	43.523657	8.406344	0.000000	90.244987	-32.111955	8.429300	-120.804716	41.852786	19.918013	0.000000	-14.180354	1.709895	4.624621
6.525000	7.971986	2.035140	-179.388895	0.315132	0.453215	-1.226001	85.076230	-29.002271	-3.499089	-123.477772	43.503759	8.423225	0.000000	90.260422	-32.103732	8.443122	-120.803372	41.910730	19.928039	0.000000	-14.207903	1.714410	4.622513
6.530000	7.980430	2.030888	-179.394464	0.315200	0.453067	-1.226047	85.111117	-29.008432	-3.490320	-123.493657	43.501648	8.456468	0.000000	90.293079	-32.090037	8.461877	-120.820178	41.905668	19.937477	0.000000	-14.202420	1.702027	4.663084
6.535000	7.963094	2.028635	-179.413871	0.315271	0.452884	-1.226076	85.142941	-29.007618	-3.479253	-123.533383	43.505940	8.460983	0.000000	90.310509	-32.096065	8.491788	-120.856220	41.900230	19.928841	0.000000	-14.225238	1.707287	4.652546
6.540000	7.945739	2.019184	-179.435234	0.315340	0.452695	-1.226051	85.178728	-29.014288	-3.460143	-123.568174	43.505035	8.466877	0.000000	90.329299	-32.088986	8.539355	-120.899103	41.886598	19.928900	0.000000	-14.250422	1.708515	4.653551
6.545000	7.926208	2.018593	-179.457553	0.315470	0.452434	-1.226089	85.217369	-29.002540	-3.445251	-123.607374	43.500779	8.496531	0.000000	90.359620	-32.094648	8.577497	-120.947490	41.851022	19.921992	0.000000	-14.282883	1.713952	4.634531
6.550000	7.933859	2.128484	-179.458140	0.315591	0.452242	-1.226335	85.168857	-28.971510	-3.614901	-123.625197	43.513331	8.481374	0.000000	90.339989	-32.191152	8.194752	-121.180212	42.250945	19.035935	0.000000	-14.280700	1.806176	4.663456
